<svg id="图层_1" data-name="图层 1" xmlns="http://www.w3.org/2000/svg" viewBox="0 0 618 130"><defs><style>.cls-1,.cls-10,.cls-3,.cls-4,.cls-5,.cls-6,.cls-7,.cls-8,.cls-9{fill:#fff;}.cls-10,.cls-2,.cls-3,.cls-4,.cls-5,.cls-6,.cls-7,.cls-8,.cls-9{isolation:isolate;}.cls-10,.cls-3,.cls-4,.cls-5,.cls-6,.cls-7,.cls-8,.cls-9{font-size:50px;}.cls-3,.cls-4{font-family:ArialMT, Arial;}.cls-3{letter-spacing:0.07em;}.cls-4{letter-spacing:0.35em;}.cls-10,.cls-5,.cls-6,.cls-7,.cls-8,.cls-9{font-family:SourceHanSansCN-Normal-GBpc-EUC-H, Source Han Sans CN;}.cls-5{letter-spacing:0.04em;}.cls-6{letter-spacing:0.03em;}.cls-7{letter-spacing:0.06em;}.cls-8{letter-spacing:0.02em;}.cls-9{letter-spacing:0.05em;}</style></defs><title>浏览器logo121_画板 1</title><path class="cls-1" d="M44.23,47.27A136.6,136.6,0,0,0,28.32,69.78C38,74.34,46.28,76,56,78c0,0,.48-1.48,2.18-6.32s5-11.58,5-11.58a91.78,91.78,0,0,1,5.3-9.1A140.21,140.21,0,0,1,80.24,35.84C97.7,16.41,111.6,5.22,118.37,11.3c4.22,3.8,4.5,12.52-1.7,23.84l2-3.16c6.34-12.69,7.8-23.09,2.85-28-9.61-9.6-39.73,5-67.27,32.57-3.46,3.47-7,7.25-10,10.75"/><path class="cls-1" d="M85.62,106.47A135.87,135.87,0,0,0,113.06,109c-.88-10.65-3.64-18.65-6.7-28.1,0,0-1.52.33-6.57,1.27s-12.55,1.42-12.55,1.42a92,92,0,0,1-10.5,0,139.73,139.73,0,0,1-19-2.59c-25.56-5.41-42.2-11.85-40.32-20.75C18.57,54.7,26,50.09,38.89,49.8l-3.71-.11C21,50.54,11.28,54.47,9.47,61.23,6,74.35,33.66,93.14,71.32,103.2c4.73,1.27,9.75,2.4,14.3,3.27"/><path class="cls-1" d="M115.7,40.52a136.13,136.13,0,0,0-11.54-25c-8.78,6.09-14.32,12.47-21,19.85,0,0,1,1.15,4.39,5a109.57,109.57,0,0,1,7.5,10.16,91.34,91.34,0,0,1,5.25,9.1,139.18,139.18,0,0,1,7.27,17.77c8.1,24.84,10.84,42.47,2.19,45.29-5.4,1.76-13.09-2.36-19.8-13.39l1.76,3.28c7.82,11.84,16.09,18.3,22.85,16.49,13.11-3.53,15.54-36.9,5.43-74.55-1.27-4.73-2.8-9.65-4.32-14"/><g class="cls-2"><text class="cls-3" transform="translate(166.24 55.95)">CSChain</text><text class="cls-4" transform="translate(409.56 55.95)">-</text><text class="cls-3" transform="translate(445.82 55.95)">Bond</text><text class="cls-5" transform="translate(166.24 115.04)">债</text><text class="cls-6" transform="translate(218.02 115.04)">券</text><text class="cls-7" transform="translate(269.41 115.04)">应</text><text class="cls-8" transform="translate(322.41 115.04)">用</text><text class="cls-9" transform="translate(373.53 115.04)">链</text><text class="cls-8" transform="translate(425.95 115.04)">浏</text><text class="cls-10" transform="translate(477.02 115.04)">览</text><text class="cls-7" transform="translate(527.1 115.04)">器</text></g></svg>