<svg id="图层_1" data-name="图层 1" xmlns="http://www.w3.org/2000/svg" viewBox="0 0 618 130"><defs><style>.cls-1,.cls-2{fill:#fff;}.cls-2{font-size:50px;font-family:ArialMT, Arial;letter-spacing:0.33em;}.cls-3{letter-spacing:0.32em;}.cls-4{letter-spacing:0.33em;}.cls-5{letter-spacing:0.35em;}.cls-6{letter-spacing:0.35em;}.cls-7{letter-spacing:0.32em;}.cls-8{letter-spacing:0.32em;}.cls-9{letter-spacing:0.32em;}.cls-10{letter-spacing:0.34em;}.cls-11{font-family:SourceHanSansCN-Normal-GBpc-EUC-H, Source Han Sans CN;letter-spacing:0.04em;}.cls-12{letter-spacing:0.03em;}.cls-13{letter-spacing:0.06em;}.cls-14{letter-spacing:0.02em;}.cls-15{letter-spacing:0.05em;}.cls-16{letter-spacing:0.02em;}.cls-17{letter-spacing:0em;}.cls-18{letter-spacing:0.06em;}</style></defs><title>浏览器logo121</title><path class="cls-1" d="M44.23,47.27A136.08,136.08,0,0,0,28.32,69.78C38,74.34,46.28,76,56,78c0,0,.48-1.48,2.18-6.32s5-11.58,5-11.58A91.59,91.59,0,0,1,68.48,51,140.43,140.43,0,0,1,80.24,35.84C97.7,16.41,111.6,5.22,118.37,11.3c4.22,3.8,4.5,12.52-1.7,23.84l2-3.16c6.34-12.69,7.8-23.09,2.85-28-9.61-9.6-39.73,5-67.27,32.57-3.46,3.47-7,7.25-10,10.75"/><path class="cls-1" d="M85.62,106.47A136.35,136.35,0,0,0,113.06,109c-.88-10.65-3.64-18.65-6.7-28.1,0,0-1.52.33-6.57,1.27s-12.55,1.42-12.55,1.42a91.83,91.83,0,0,1-10.5,0,139.64,139.64,0,0,1-19-2.59c-25.56-5.41-42.2-11.85-40.32-20.75C18.57,54.7,26,50.09,38.89,49.8l-3.71-.11C21,50.54,11.28,54.47,9.47,61.23,6,74.35,33.66,93.14,71.32,103.2c4.73,1.27,9.75,2.4,14.3,3.27"/><path class="cls-1" d="M115.7,40.52a136.22,136.22,0,0,0-11.54-25c-8.78,6.09-14.32,12.47-21,19.85,0,0,1,1.15,4.39,5s7.5,10.16,7.5,10.16a91.61,91.61,0,0,1,5.25,9.1,138.65,138.65,0,0,1,7.27,17.77c8.1,24.84,10.84,42.47,2.19,45.29-5.4,1.76-13.09-2.36-19.8-13.39l1.76,3.28c7.82,11.84,16.09,18.3,22.85,16.49,13.11-3.53,15.54-36.9,5.43-74.55-1.27-4.73-2.8-9.65-4.32-14"/><text class="cls-2" transform="translate(166.24 54.95)">C<tspan class="cls-3" x="52.49" y="0">S</tspan><tspan class="cls-4" x="101.95" y="0">R</tspan><tspan class="cls-5" x="154.39" y="0">B</tspan><tspan class="cls-6" x="205.32" y="0">-</tspan><tspan class="cls-7" x="239.58" y="0">B</tspan><tspan class="cls-8" x="289.03" y="0">o</tspan><tspan class="cls-9" x="332.87" y="0">n</tspan><tspan class="cls-10" x="376.59" y="0">d</tspan><tspan class="cls-11"><tspan x="0" y="60">债</tspan><tspan class="cls-12" x="51.78" y="60">券</tspan><tspan class="cls-13" x="103.17" y="60">应</tspan><tspan class="cls-14" x="156.17" y="60">用</tspan><tspan class="cls-15" x="207.29" y="60">链</tspan><tspan class="cls-16" x="259.71" y="60">浏</tspan><tspan class="cls-17" x="310.78" y="60">览</tspan><tspan class="cls-18" x="360.86" y="60">器</tspan></tspan></text></svg>