<svg id="图层_1" data-name="图层 1" xmlns="http://www.w3.org/2000/svg" viewBox="0 0 618 130"><defs><style>.cls-1,.cls-2{fill:#fff;}.cls-2{font-size:65px;font-family:Arial-BoldMT, Arial;font-weight:700;letter-spacing:0.06em;}.cls-3{letter-spacing:0.06em;}.cls-4{letter-spacing:0.07em;}.cls-5{letter-spacing:0.08em;}.cls-6{letter-spacing:0.1em;}.cls-7{letter-spacing:0.06em;}.cls-8{letter-spacing:0.06em;}.cls-9{letter-spacing:0.06em;}.cls-10{letter-spacing:0.08em;}.cls-11{font-size:53px;font-family:PingFangSC-Medium-GBpc-EUC-H, PingFang SC;font-weight:400;letter-spacing:-0.02em;}.cls-12{letter-spacing:-0.04em;}.cls-13{letter-spacing:-0.02em;}.cls-14{letter-spacing:-0.03em;}.cls-15{letter-spacing:-0.01em;}.cls-16{letter-spacing:-0.04em;}.cls-17{letter-spacing:-0.06em;}.cls-18{letter-spacing:0.01em;}</style></defs><title>浏览器logo</title><path class="cls-1" d="M44.23,46.27A136.08,136.08,0,0,0,28.32,68.78C38,73.34,46.28,75,56,77c0,0,.48-1.48,2.18-6.32s5-11.58,5-11.58A91.59,91.59,0,0,1,68.48,50,140.43,140.43,0,0,1,80.24,34.84C97.7,15.41,111.6,4.22,118.37,10.3c4.22,3.8,4.5,12.52-1.7,23.84l2-3.16c6.34-12.69,7.8-23.09,2.85-28-9.61-9.6-39.73,5-67.27,32.57-3.46,3.47-7,7.25-10,10.75"/><path class="cls-1" d="M85.62,105.47A136.35,136.35,0,0,0,113.06,108c-.88-10.65-3.64-18.65-6.7-28.1,0,0-1.52.33-6.57,1.27s-12.55,1.42-12.55,1.42a91.83,91.83,0,0,1-10.5,0,139.64,139.64,0,0,1-19-2.59c-25.56-5.41-42.2-11.85-40.32-20.75C18.57,53.7,26,49.09,38.89,48.8l-3.71-.11C21,49.54,11.28,53.47,9.47,60.23,6,73.35,33.66,92.14,71.32,102.2c4.73,1.27,9.75,2.4,14.3,3.27"/><path class="cls-1" d="M115.7,39.52a136.22,136.22,0,0,0-11.54-25c-8.78,6.09-14.32,12.47-21,19.85,0,0,1,1.15,4.39,5s7.5,10.16,7.5,10.16a91.61,91.61,0,0,1,5.25,9.1,138.65,138.65,0,0,1,7.27,17.77c8.1,24.84,10.84,42.47,2.19,45.29-5.4,1.76-13.09-2.36-19.8-13.39l1.76,3.28c7.82,11.84,16.09,18.3,22.85,16.49,13.11-3.53,15.54-36.9,5.43-74.55-1.27-4.73-2.8-9.65-4.32-14"/><text class="cls-2" transform="translate(165.24 58.8)">C<tspan class="cls-3" x="50.85" y="0">S</tspan><tspan class="cls-4" x="98.03" y="0">R</tspan><tspan class="cls-5" x="149.2" y="0">B</tspan><tspan class="cls-6" x="201.25" y="0">-</tspan><tspan class="cls-7" x="229.4" y="0">B</tspan><tspan class="cls-8" x="280.08" y="0">o</tspan><tspan class="cls-9" x="323.84" y="0">n</tspan><tspan class="cls-10" x="367.62" y="0">d</tspan><tspan class="cls-11"><tspan x="0" y="55">债</tspan><tspan class="cls-12" x="51.97" y="55">券</tspan><tspan class="cls-13" x="102.94" y="55">应</tspan><tspan class="cls-14" x="154.93" y="55">用</tspan><tspan class="cls-15" x="206.1" y="55">链</tspan><tspan class="cls-16" x="258.35" y="55">浏</tspan><tspan class="cls-17" x="309.41" y="55">览</tspan><tspan class="cls-18" x="359.05" y="55">器</tspan></tspan></text></svg>