<?xml version="1.0" encoding="UTF-8"?>
<svg width="16px" height="16px" viewBox="0 0 16 16" version="1.1" xmlns="http://www.w3.org/2000/svg" xmlns:xlink="http://www.w3.org/1999/xlink">
    <!-- Generator: Sketch 54.1 (76490) - https://sketchapp.com -->
    <title>help</title>
    <desc>Created with Sketch.</desc>
    <g id="页面1" stroke="none" stroke-width="1" fill="none" fill-rule="evenodd">
        <g id="Stats-rich-list" transform="translate(-691.000000, -92.000000)" fill="#171D44" fill-rule="nonzero">
            <g id="help" transform="translate(691.000000, 92.000000)">
                <path d="M8.00000267,15.9999893 C5.87776431,16.0024531 3.84198864,15.1593153 2.34294542,13.6570599 C1.61218028,12.9288203 1.0301578,12.0652968 0.629348281,11.1146641 C0.212046342,10.1293922 -0.00200862713,9.07000153 1.6e-05,8.00000267 C-0.00244772356,5.87776431 0.840690064,3.84198864 2.34294542,2.34294542 C3.07118504,1.61218028 3.93470858,1.0301578 4.88534119,0.629348281 C5.87061311,0.21204634 6.93000381,-0.00200862924 8.00000267,1.6e-05 C10.122241,-0.0024477194 12.1580167,0.840690068 13.6570599,2.34294542 C14.3878251,3.07118504 14.9698475,3.93470858 15.370657,4.88534119 C15.787959,5.87061311 16.002014,6.93000381 15.9999893,8.00000267 C16.002453,10.122241 15.1593153,12.1580167 13.6570599,13.6570599 C12.9288203,14.3878251 12.0652968,14.9698475 11.1146641,15.370657 C10.1293922,15.787959 9.07000153,16.002014 8.00000267,15.9999893 L8.00000267,15.9999893 Z M8.00000267,0.710948141 C3.98027603,0.710948141 0.710948156,3.98027603 0.710948156,8.00000267 C0.710948156,12.0197293 3.98027603,15.2890572 8.00000267,15.2890572 C12.0197293,15.2890572 15.2890572,12.0197293 15.2890572,8.00000267 C15.2890572,3.98027605 12.0197293,0.710948141 8.00000267,0.710948141 Z" id="形状"></path>
                <path d="M6.43947194,6.5013385 L5.33334044,6.5013385 C5.34080709,5.45440691 5.64053992,4.74667475 6.34347209,4.28534219 C6.8234713,3.91627614 7.41387031,3.73334311 8.12106912,3.73334311 C9.71733312,3.85600958 10.569065,4.6240083 10.6650649,6.04107259 C10.6965315,6.68533819 10.3290655,7.34240377 9.56320006,8.02293597 C8.7221348,8.60106834 8.35520208,9.31146716 8.45706858,10.1333324 L7.398937,10.1333324 C7.36693705,9.54240009 7.43040361,9.10826748 7.59093669,8.80160133 C7.68693653,8.52426845 8.00586933,8.12693578 8.54826842,7.60480333 L8.64426827,7.51413681 C9.31413381,6.96213773 9.61866664,6.45493858 9.55413341,5.99520602 C9.45813356,5.10454083 8.96373439,4.64427494 8.07040255,4.60854166 C6.95040441,4.63840827 6.40800531,5.26134056 6.43947194,6.50080517 L6.43947194,6.5013385 Z M7.46667022,11.1999973 L8.53333511,11.1999973 L8.53333511,12.2650622 L7.46667022,12.2666622 L7.46667022,11.1999973 L7.46667022,11.1999973 Z" id="形状"></path>
            </g>
        </g>
    </g>
</svg>